<svg width="29" height="29" viewBox="0 0 29 29" fill="none" xmlns="http://www.w3.org/2000/svg">
<path fill-rule="evenodd" clip-rule="evenodd" d="M14.5 29C6.49187 29 0 22.5081 0 14.5C0 6.49187 6.49187 0 14.5 0C22.5081 0 29 6.49187 29 14.5C29 22.5081 22.5081 29 14.5 29ZM14.5 25.375C20.5061 25.375 25.375 20.5061 25.375 14.5C25.375 8.4939 20.5061 3.625 14.5 3.625C8.4939 3.625 3.625 8.4939 3.625 14.5C3.625 20.5061 8.4939 25.375 14.5 25.375ZM11.4058 10.3441L15.5617 14.5L11.4058 18.6559L13.9691 21.2191L20.6882 14.5L13.9691 7.78086L11.4058 10.3441Z" fill="#BBBBBB"/>
</svg>
